<svg width="67" height="67" viewBox="0 0 67 67" fill="none" xmlns="http://www.w3.org/2000/svg">
<rect width="67" height="67" rx="6" fill="#17BA9C" fill-opacity="0.26"/>
<path opacity="0.35" d="M47.0782 49.0814H20.6609C17.5342 49.0814 15 46.5472 15 43.4205V24.551C15 21.4243 17.5342 18.8901 20.6609 18.8901H47.0782C50.2049 18.8901 52.739 21.4243 52.739 24.551V43.4205C52.739 46.5472 50.2049 49.0814 47.0782 49.0814Z" fill="white"/>
<path d="M29.9862 33.5423L15 24.551C15 21.4243 17.5342 18.8901 20.6609 18.8901H47.0782C50.2049 18.8901 52.739 21.4243 52.739 24.551L37.7529 33.5423C35.3621 34.9764 32.3769 34.9764 29.9862 33.5423Z" fill="white"/>
</svg>
