<svg width="67" height="67" viewBox="0 0 67 67" fill="none" xmlns="http://www.w3.org/2000/svg">
<rect x="0.000244141" width="67" height="67" rx="6" fill="#17BA9C"/>
<path opacity="0.35" d="M47.0784 49.0814H20.6611C17.5344 49.0814 15.0002 46.5472 15.0002 43.4205V24.551C15.0002 21.4243 17.5344 18.8901 20.6611 18.8901H47.0784C50.2051 18.8901 52.7393 21.4243 52.7393 24.551V43.4205C52.7393 46.5472 50.2051 49.0814 47.0784 49.0814Z" fill="white"/>
<path d="M29.9864 33.5423L15.0002 24.551C15.0002 21.4243 17.5344 18.8901 20.6611 18.8901H47.0784C50.2051 18.8901 52.7393 21.4243 52.7393 24.551L37.7531 33.5423C35.3623 34.9764 32.3772 34.9764 29.9864 33.5423Z" fill="white"/>
</svg>
