<svg width="17" height="8" viewBox="0 0 17 8" fill="none" xmlns="http://www.w3.org/2000/svg">
<g clip-path="url(#clip0_1677_2775)">
<path d="M0 2.94177H0.493254V6.03454H2.36495V6.47377H0V2.94177Z" fill="#27282B"/>
<path d="M2.72241 3.19323C2.66117 3.13292 2.6311 3.05896 2.6311 2.97134C2.6311 2.88372 2.66117 2.80862 2.72241 2.74718C2.78364 2.68459 2.85936 2.65387 2.95177 2.65387C3.04419 2.65387 3.1199 2.68345 3.18114 2.74262C3.24238 2.80179 3.27244 2.87462 3.27244 2.96224C3.27244 3.04985 3.24238 3.12951 3.18114 3.19209C3.1199 3.25467 3.04419 3.2854 2.95177 3.2854C2.85936 3.2854 2.78364 3.25467 2.72241 3.19436V3.19323Z" fill="#17BA9C"/>
<path d="M3.18893 3.79858H2.7146V6.47261H3.18893V3.79858Z" fill="#27282B"/>
<path d="M6.01262 3.9454C6.21304 4.05919 6.37003 4.21963 6.4836 4.42445C6.59717 4.62927 6.65396 4.86709 6.65396 5.13563C6.65396 5.40417 6.59717 5.64313 6.4836 5.84908C6.37003 6.05618 6.21304 6.21662 6.01262 6.33041C5.8122 6.44534 5.58506 6.50223 5.33119 6.50223C5.13746 6.50223 4.9593 6.46354 4.79786 6.38617C4.63641 6.30879 4.50279 6.19614 4.39813 6.04821V6.47151H3.94385V2.729H4.41817V4.20256C4.52395 4.06147 4.65534 3.95451 4.81344 3.88168C4.97155 3.80886 5.14414 3.77358 5.33119 3.77358C5.58506 3.77358 5.8122 3.83048 6.01262 3.9454V3.9454ZM5.74317 5.9606C5.87678 5.88208 5.98144 5.77057 6.05938 5.6272C6.13732 5.48382 6.17518 5.31997 6.17518 5.13563C6.17518 4.95129 6.13621 4.7863 6.05938 4.64406C5.98256 4.50183 5.87678 4.39145 5.74317 4.31408C5.60955 4.2367 5.45924 4.19801 5.29111 4.19801C5.12298 4.19801 4.97712 4.2367 4.84128 4.31408C4.70544 4.39145 4.60078 4.50183 4.52506 4.64406C4.44935 4.7863 4.41149 4.95129 4.41149 5.13563C4.41149 5.31997 4.44935 5.48496 4.52506 5.6272C4.60078 5.76943 4.70655 5.88094 4.84128 5.9606C4.97601 6.04025 5.12632 6.07894 5.29111 6.07894C5.4559 6.07894 5.60955 6.03911 5.74317 5.9606V5.9606Z" fill="#27282B"/>
<path d="M9.09682 5.75573L9.35402 6.06865C9.23823 6.20975 9.09348 6.31785 8.91755 6.39181C8.74163 6.46577 8.54455 6.50219 8.32743 6.50219C8.0513 6.50219 7.80523 6.44415 7.59145 6.32809C7.37767 6.21203 7.21177 6.04931 7.09485 5.84107C6.97794 5.63284 6.92004 5.3973 6.92004 5.13445C6.92004 4.8716 6.97683 4.64174 7.0904 4.43351C7.20397 4.22528 7.35985 4.06256 7.55916 3.9465C7.75846 3.83043 7.98227 3.7724 8.23279 3.7724C8.46995 3.7724 8.68485 3.82702 8.8797 3.93626C9.07344 4.04549 9.2282 4.19911 9.344 4.39824C9.45869 4.59623 9.51881 4.82494 9.52215 5.08438L7.44447 5.49857C7.51017 5.68405 7.62151 5.82628 7.77739 5.92755C7.93327 6.02883 8.12256 6.07889 8.34302 6.07889C8.6559 6.07889 8.90753 5.97079 9.09793 5.75573H9.09682ZM7.79075 4.2981C7.66048 4.37548 7.55916 4.48358 7.48678 4.62354C7.41441 4.7635 7.37878 4.92508 7.37878 5.11055V5.16062L9.05228 4.83746C9.00997 4.64288 8.91421 4.48472 8.76613 4.36296C8.61804 4.24235 8.43989 4.1809 8.23279 4.1809C8.068 4.1809 7.92103 4.21959 7.79075 4.29696V4.2981Z" fill="#27282B"/>
<path d="M10.8549 3.89418C11.0163 3.81339 11.2123 3.77356 11.4428 3.77356V4.24237C11.4161 4.23895 11.3804 4.23782 11.3348 4.23782C11.0776 4.23782 10.876 4.31633 10.7302 4.47222C10.5843 4.62811 10.5108 4.85114 10.5108 5.14016V6.47148H10.0365V3.79859H10.4908V4.24692C10.5732 4.09217 10.6945 3.97497 10.856 3.89418H10.8549Z" fill="#27282B"/>
<path d="M12.6241 3.56985C12.4649 3.71664 12.3847 3.92943 12.3847 4.20821V4.61216H13.9647V5.04569H12.3847V6.47374H11.8915V4.20366C11.8915 3.79629 12.0173 3.47769 12.2689 3.24783C12.5206 3.01798 12.8724 2.90192 13.3234 2.90192C13.5204 2.90192 13.7053 2.92467 13.8767 2.97019C14.0471 3.0157 14.1963 3.0817 14.321 3.16932L14.1584 3.58806C13.938 3.42989 13.6652 3.35138 13.339 3.35138C13.0127 3.35138 12.7856 3.42421 12.6252 3.57099L12.6241 3.56985Z" fill="#17BA9C"/>
<path d="M16.9999 3.79858V6.10849C16.9999 6.57616 16.8931 6.92094 16.6793 7.1451C16.4655 7.36927 16.1448 7.48078 15.7161 7.48078C15.4823 7.48078 15.2596 7.44664 15.047 7.37723C14.8343 7.30782 14.6606 7.20996 14.5259 7.08252L14.7575 6.70929C14.8722 6.81739 15.0113 6.90046 15.175 6.9619C15.3387 7.02335 15.5102 7.05293 15.6905 7.05293C15.9767 7.05293 16.1871 6.98011 16.3219 6.83332C16.4566 6.68767 16.5245 6.46237 16.5245 6.1597V5.96284C16.4287 6.09028 16.3052 6.18928 16.1537 6.25755C16.0023 6.32696 15.8375 6.3611 15.6605 6.3611C15.312 6.3611 15.0369 6.26324 14.8365 6.06866C14.6361 5.87409 14.5359 5.58393 14.5359 5.2016V3.79972H15.0102V5.14698C15.0102 5.403 15.0715 5.59644 15.1928 5.72957C15.3142 5.86271 15.489 5.9287 15.7161 5.9287C15.9667 5.9287 16.1637 5.85133 16.3085 5.69658C16.4532 5.54182 16.5256 5.32335 16.5256 5.04115V3.79972H16.9999V3.79858Z" fill="#17BA9C"/>
<path d="M3.34363 2.35349C3.76562 2.02237 4.23661 1.76179 4.71761 1.52739C5.20196 1.29981 5.70412 1.10751 6.21853 0.956171C7.24623 0.653494 8.32182 0.503293 9.39406 0.518086C9.93074 0.528327 10.4663 0.568153 10.9963 0.65577C11.2624 0.692182 11.523 0.755904 11.7857 0.808246C12.0452 0.875381 12.3068 0.934551 12.5607 1.01989C13.5839 1.33622 14.5649 1.78341 15.4679 2.35236C14.5003 1.90972 13.5082 1.53991 12.4917 1.27705C12.3658 1.24064 12.2378 1.21333 12.1086 1.18602L11.7256 1.10068C11.4673 1.05744 11.2112 1.00282 10.9518 0.975515C10.4351 0.899277 9.91292 0.864003 9.39072 0.858313C9.13018 0.850348 8.86963 0.860589 8.60797 0.868554C8.34743 0.885622 8.08688 0.904967 7.82745 0.935689C7.30859 0.991446 6.79306 1.0893 6.28422 1.20992C5.26877 1.46253 4.2689 1.82324 3.34363 2.35122V2.35349Z" fill="#17BA9C"/>
</g>
<defs>
<clipPath id="clip0_1677_2775">
<rect width="17" height="6.96386" fill="white" transform="translate(0 0.518066)"/>
</clipPath>
</defs>
</svg>
