<svg width="83" height="34" viewBox="0 0 83 34" fill="none" xmlns="http://www.w3.org/2000/svg">
<g clip-path="url(#clip0_723_2640)">
<path d="M0 11.8334H2.40824V26.9334H11.5465V29.0778H0V11.8334Z" fill="white"/>
<path d="M13.2915 13.0611C12.9925 12.7667 12.8457 12.4056 12.8457 11.9778C12.8457 11.55 12.9925 11.1834 13.2915 10.8834C13.5905 10.5778 13.9601 10.4278 14.4113 10.4278C14.8625 10.4278 15.2322 10.5722 15.5312 10.8611C15.8302 11.15 15.977 11.5056 15.977 11.9334C15.977 12.3611 15.8302 12.75 15.5312 13.0556C15.2322 13.3611 14.8625 13.5111 14.4113 13.5111C13.9601 13.5111 13.5905 13.3611 13.2915 13.0667V13.0611Z" fill="#17BA9C"/>
<path d="M15.5692 16.0167H13.2534V29.0722H15.5692V16.0167Z" fill="white"/>
<path d="M29.3555 16.7333C30.334 17.2889 31.1005 18.0722 31.655 19.0722C32.2095 20.0722 32.4867 21.2333 32.4867 22.5444C32.4867 23.8555 32.2095 25.0222 31.655 26.0278C31.1005 27.0389 30.334 27.8222 29.3555 28.3778C28.377 28.9389 27.268 29.2167 26.0285 29.2167C25.0826 29.2167 24.2128 29.0278 23.4246 28.65C22.6363 28.2722 21.984 27.7222 21.473 27V29.0667H19.255V10.7944H21.5708V17.9889C22.0873 17.3 22.7287 16.7778 23.5007 16.4222C24.2726 16.0667 25.1152 15.8944 26.0285 15.8944C27.268 15.8944 28.377 16.1722 29.3555 16.7333V16.7333ZM28.0399 26.5722C28.6923 26.1889 29.2033 25.6444 29.5838 24.9444C29.9643 24.2444 30.1492 23.4444 30.1492 22.5444C30.1492 21.6444 29.9589 20.8389 29.5838 20.1444C29.2087 19.45 28.6923 18.9111 28.0399 18.5333C27.3876 18.1555 26.6537 17.9667 25.8328 17.9667C25.0119 17.9667 24.2998 18.1555 23.6366 18.5333C22.9734 18.9111 22.4624 19.45 22.0927 20.1444C21.723 20.8389 21.5382 21.6444 21.5382 22.5444C21.5382 23.4444 21.723 24.25 22.0927 24.9444C22.4624 25.6389 22.9788 26.1833 23.6366 26.5722C24.2944 26.9611 25.0283 27.15 25.8328 27.15C26.6374 27.15 27.3876 26.9555 28.0399 26.5722V26.5722Z" fill="white"/>
<path d="M44.4138 25.5722L45.6696 27.1C45.1042 27.7889 44.3975 28.3167 43.5386 28.6778C42.6796 29.0389 41.7174 29.2167 40.6574 29.2167C39.3092 29.2167 38.1078 28.9334 37.064 28.3667C36.0203 27.8 35.2103 27.0056 34.6395 25.9889C34.0687 24.9722 33.786 23.8222 33.786 22.5389C33.786 21.2556 34.0633 20.1334 34.6177 19.1167C35.1722 18.1 35.9333 17.3056 36.9064 16.7389C37.8795 16.1722 38.9722 15.8889 40.1953 15.8889C41.3532 15.8889 42.4024 16.1556 43.3537 16.6889C44.2996 17.2222 45.0553 17.9722 45.6206 18.9445C46.1806 19.9111 46.4741 21.0278 46.4904 22.2945L36.3465 24.3167C36.6672 25.2222 37.2108 25.9167 37.9719 26.4111C38.733 26.9056 39.6571 27.15 40.7335 27.15C42.2611 27.15 43.4896 26.6222 44.4192 25.5722H44.4138ZM38.0371 18.4556C37.4011 18.8334 36.9064 19.3611 36.553 20.0445C36.1997 20.7278 36.0257 21.5167 36.0257 22.4222V22.6667L44.1963 21.0889C43.9898 20.1389 43.5223 19.3667 42.7992 18.7722C42.0762 18.1834 41.2064 17.8834 40.1953 17.8834C39.3907 17.8834 38.6732 18.0722 38.0371 18.45V18.4556Z" fill="white"/>
<path d="M52.9976 16.4834C53.7858 16.0889 54.7426 15.8945 55.8679 15.8945V18.1834C55.7374 18.1667 55.5635 18.1611 55.3406 18.1611C54.0848 18.1611 53.1009 18.5445 52.3887 19.3056C51.6766 20.0667 51.3178 21.1556 51.3178 22.5667V29.0667H49.002V16.0167H51.2199V18.2056C51.6222 17.45 52.2148 16.8778 53.003 16.4834H52.9976Z" fill="white"/>
<path d="M61.6357 14.9C60.8584 15.6167 60.467 16.6556 60.467 18.0167V19.9889H68.1809V22.1056H60.467V29.0778H58.0587V17.9945C58.0587 16.0056 58.673 14.45 59.9016 13.3278C61.1302 12.2056 62.848 11.6389 65.0497 11.6389C66.0119 11.6389 66.9143 11.75 67.7515 11.9722C68.5832 12.1945 69.3117 12.5167 69.9205 12.9445L69.1268 14.9889C68.0505 14.2167 66.7186 13.8334 65.1258 13.8334C63.533 13.8334 62.424 14.1889 61.6412 14.9056L61.6357 14.9Z" fill="#17BA9C"/>
<path d="M83 16.0167V27.2944C83 29.5778 82.4781 31.2611 81.4344 32.3556C80.3906 33.45 78.825 33.9944 76.7321 33.9944C75.5905 33.9944 74.5032 33.8278 73.4649 33.4889C72.4266 33.15 71.5786 32.6722 70.9208 32.05L72.0515 30.2278C72.6114 30.7556 73.291 31.1611 74.0901 31.4611C74.8892 31.7611 75.7264 31.9056 76.607 31.9056C78.0041 31.9056 79.0316 31.55 79.6894 30.8333C80.3472 30.1222 80.6788 29.0222 80.6788 27.5444V26.5833C80.2113 27.2056 79.6078 27.6889 78.8685 28.0222C78.1292 28.3611 77.3246 28.5278 76.4603 28.5278C74.7587 28.5278 73.416 28.05 72.4375 27.1C71.459 26.15 70.9697 24.7333 70.9697 22.8667V16.0222H73.2855V22.6C73.2855 23.85 73.5845 24.7944 74.1771 25.4444C74.7696 26.0944 75.6231 26.4167 76.7321 26.4167C77.9552 26.4167 78.9174 26.0389 79.6241 25.2833C80.3308 24.5278 80.6842 23.4611 80.6842 22.0833V16.0222H83V16.0167Z" fill="#17BA9C"/>
<path d="M16.325 8.96109C18.3853 7.34442 20.6848 6.0722 23.0332 4.92776C25.398 3.81665 27.8497 2.87776 30.3612 2.13887C35.3789 0.66109 40.6302 -0.0722432 45.8653 -2.09716e-05C48.4856 0.049979 51.1004 0.244423 53.688 0.672201C54.9873 0.849979 56.2593 1.16109 57.5423 1.41665C58.8089 1.74442 60.0864 2.03331 61.3259 2.44998C66.3217 3.99442 71.111 6.17776 75.5198 8.95553C70.7957 6.79442 65.9521 4.98887 60.9888 3.70553C60.3745 3.52776 59.7494 3.39442 59.1188 3.26109L57.2487 2.84442C55.9875 2.63331 54.7372 2.36665 53.4706 2.23331C50.9482 1.86109 48.3986 1.68887 45.849 1.66109C44.5769 1.6222 43.3048 1.6722 42.0273 1.71109C40.7553 1.79442 39.4832 1.88887 38.2166 2.03887C35.6833 2.31109 33.1663 2.78887 30.682 3.37776C25.7242 4.61109 20.8424 6.3722 16.325 8.94998V8.96109Z" fill="#17BA9C"/>
</g>
<defs>
<clipPath id="clip0_723_2640">
<rect width="83" height="34" fill="white"/>
</clipPath>
</defs>
</svg>
